<mxfile host="app.diagrams.net" agent="Mozilla/5.0 (Windows NT 10.0; Win64; x64) AppleWebKit/537.36 (KHTML, like Gecko) Chrome/133.0.0.0 Safari/537.36 Edg/133.0.0.0" version="26.0.13">
  <diagram name="Page-1" id="U-OPLvkwDwh7SKHwz52M">
    <mxGraphModel dx="1282" dy="627" grid="1" gridSize="10" guides="1" tooltips="1" connect="1" arrows="1" fold="1" page="1" pageScale="1" pageWidth="850" pageHeight="1100" math="0" shadow="0">
      <root>
        <mxCell id="0" />
        <mxCell id="1" parent="0" />
        <mxCell id="Af2n3tpT52LlwI9sb6xv-1" value="" style="rounded=0;whiteSpace=wrap;html=1;" parent="1" vertex="1">
          <mxGeometry x="190" y="20" width="400" height="470" as="geometry" />
        </mxCell>
        <mxCell id="Af2n3tpT52LlwI9sb6xv-2" style="edgeStyle=entityRelationEdgeStyle;rounded=0;orthogonalLoop=1;jettySize=auto;html=1;exitX=1;exitY=0;exitDx=0;exitDy=0;" parent="1" source="Af2n3tpT52LlwI9sb6xv-28" edge="1">
          <mxGeometry relative="1" as="geometry">
            <mxPoint x="650" y="190" as="targetPoint" />
          </mxGeometry>
        </mxCell>
        <mxCell id="Af2n3tpT52LlwI9sb6xv-3" value="Passenger" style="shape=umlActor;" parent="1" vertex="1">
          <mxGeometry x="50" y="150" width="50" height="80" as="geometry" />
        </mxCell>
        <mxCell id="Af2n3tpT52LlwI9sb6xv-4" value="" style="shape=umlActor;" parent="1" vertex="1">
          <mxGeometry x="650" y="150" width="50" height="80" as="geometry" />
        </mxCell>
        <mxCell id="Af2n3tpT52LlwI9sb6xv-5" value="" style="shape=umlActor;" parent="1" vertex="1">
          <mxGeometry x="50" y="400" width="50" height="80" as="geometry" />
        </mxCell>
        <mxCell id="Af2n3tpT52LlwI9sb6xv-6" style="edgeStyle=entityRelationEdgeStyle;rounded=0;orthogonalLoop=1;jettySize=auto;html=1;exitX=0;exitY=0.5;exitDx=0;exitDy=0;" parent="1" source="Af2n3tpT52LlwI9sb6xv-8" target="Af2n3tpT52LlwI9sb6xv-3" edge="1">
          <mxGeometry relative="1" as="geometry" />
        </mxCell>
        <mxCell id="Af2n3tpT52LlwI9sb6xv-7" style="edgeStyle=entityRelationEdgeStyle;rounded=0;orthogonalLoop=1;jettySize=auto;html=1;" parent="1" source="Af2n3tpT52LlwI9sb6xv-8" target="Af2n3tpT52LlwI9sb6xv-4" edge="1">
          <mxGeometry relative="1" as="geometry" />
        </mxCell>
        <mxCell id="Af2n3tpT52LlwI9sb6xv-8" value="Login" style="ellipse;whiteSpace=wrap;" parent="1" vertex="1">
          <mxGeometry x="250" y="50" width="120" height="50" as="geometry" />
        </mxCell>
        <mxCell id="Af2n3tpT52LlwI9sb6xv-9" style="edgeStyle=entityRelationEdgeStyle;rounded=0;orthogonalLoop=1;jettySize=auto;html=1;" parent="1" source="Af2n3tpT52LlwI9sb6xv-12" target="Af2n3tpT52LlwI9sb6xv-3" edge="1">
          <mxGeometry relative="1" as="geometry" />
        </mxCell>
        <mxCell id="Af2n3tpT52LlwI9sb6xv-10" style="edgeStyle=entityRelationEdgeStyle;rounded=0;orthogonalLoop=1;jettySize=auto;html=1;" parent="1" source="Af2n3tpT52LlwI9sb6xv-12" target="Af2n3tpT52LlwI9sb6xv-4" edge="1">
          <mxGeometry relative="1" as="geometry" />
        </mxCell>
        <mxCell id="Af2n3tpT52LlwI9sb6xv-11" style="edgeStyle=entityRelationEdgeStyle;rounded=0;orthogonalLoop=1;jettySize=auto;html=1;exitX=0;exitY=1;exitDx=0;exitDy=0;" parent="1" source="Af2n3tpT52LlwI9sb6xv-12" target="Af2n3tpT52LlwI9sb6xv-5" edge="1">
          <mxGeometry relative="1" as="geometry" />
        </mxCell>
        <mxCell id="Af2n3tpT52LlwI9sb6xv-12" value="Ticket Availability" style="ellipse;whiteSpace=wrap;" parent="1" vertex="1">
          <mxGeometry x="250" y="120" width="120" height="50" as="geometry" />
        </mxCell>
        <mxCell id="Af2n3tpT52LlwI9sb6xv-13" style="edgeStyle=entityRelationEdgeStyle;rounded=0;orthogonalLoop=1;jettySize=auto;html=1;" parent="1" source="Af2n3tpT52LlwI9sb6xv-14" target="Af2n3tpT52LlwI9sb6xv-3" edge="1">
          <mxGeometry relative="1" as="geometry" />
        </mxCell>
        <mxCell id="Af2n3tpT52LlwI9sb6xv-14" value="Fill form" style="ellipse;whiteSpace=wrap;" parent="1" vertex="1">
          <mxGeometry x="250" y="190" width="120" height="50" as="geometry" />
        </mxCell>
        <mxCell id="Af2n3tpT52LlwI9sb6xv-15" style="edgeStyle=entityRelationEdgeStyle;rounded=0;orthogonalLoop=1;jettySize=auto;html=1;" parent="1" source="Af2n3tpT52LlwI9sb6xv-17" target="Af2n3tpT52LlwI9sb6xv-3" edge="1">
          <mxGeometry relative="1" as="geometry" />
        </mxCell>
        <mxCell id="Af2n3tpT52LlwI9sb6xv-16" style="edgeStyle=entityRelationEdgeStyle;rounded=0;orthogonalLoop=1;jettySize=auto;html=1;" parent="1" edge="1">
          <mxGeometry relative="1" as="geometry">
            <mxPoint x="370" y="281" as="sourcePoint" />
            <mxPoint x="650" y="186" as="targetPoint" />
          </mxGeometry>
        </mxCell>
        <mxCell id="Af2n3tpT52LlwI9sb6xv-17" value="Book Ticket" style="ellipse;whiteSpace=wrap;" parent="1" vertex="1">
          <mxGeometry x="250" y="260" width="120" height="50" as="geometry" />
        </mxCell>
        <mxCell id="Af2n3tpT52LlwI9sb6xv-18" style="edgeStyle=entityRelationEdgeStyle;rounded=0;orthogonalLoop=1;jettySize=auto;html=1;exitX=1;exitY=0.5;exitDx=0;exitDy=0;" parent="1" source="Af2n3tpT52LlwI9sb6xv-26" target="Af2n3tpT52LlwI9sb6xv-4" edge="1">
          <mxGeometry relative="1" as="geometry" />
        </mxCell>
        <mxCell id="Af2n3tpT52LlwI9sb6xv-19" style="edgeStyle=entityRelationEdgeStyle;rounded=0;orthogonalLoop=1;jettySize=auto;html=1;" parent="1" source="Af2n3tpT52LlwI9sb6xv-20" target="Af2n3tpT52LlwI9sb6xv-4" edge="1">
          <mxGeometry relative="1" as="geometry" />
        </mxCell>
        <mxCell id="Af2n3tpT52LlwI9sb6xv-20" value="Refund Money" style="ellipse;whiteSpace=wrap;" parent="1" vertex="1">
          <mxGeometry x="400" y="330" width="120" height="50" as="geometry" />
        </mxCell>
        <mxCell id="Af2n3tpT52LlwI9sb6xv-21" style="edgeStyle=entityRelationEdgeStyle;rounded=0;orthogonalLoop=1;jettySize=auto;html=1;" parent="1" source="Af2n3tpT52LlwI9sb6xv-22" edge="1">
          <mxGeometry relative="1" as="geometry">
            <mxPoint x="650" y="190" as="targetPoint" />
          </mxGeometry>
        </mxCell>
        <mxCell id="Af2n3tpT52LlwI9sb6xv-22" value="Print Ticket" style="ellipse;whiteSpace=wrap;" parent="1" vertex="1">
          <mxGeometry x="400" y="400" width="120" height="50" as="geometry" />
        </mxCell>
        <mxCell id="Af2n3tpT52LlwI9sb6xv-23" style="edgeStyle=entityRelationEdgeStyle;rounded=0;orthogonalLoop=1;jettySize=auto;html=1;entryX=0.5;entryY=0.5;entryDx=0;entryDy=0;entryPerimeter=0;" parent="1" source="Af2n3tpT52LlwI9sb6xv-22" target="Af2n3tpT52LlwI9sb6xv-5" edge="1">
          <mxGeometry relative="1" as="geometry">
            <Array as="points">
              <mxPoint x="240" y="470" />
            </Array>
          </mxGeometry>
        </mxCell>
        <mxCell id="Af2n3tpT52LlwI9sb6xv-24" style="edgeStyle=entityRelationEdgeStyle;rounded=0;orthogonalLoop=1;jettySize=auto;html=1;exitX=0;exitY=1;exitDx=0;exitDy=0;entryX=0.5;entryY=0.5;entryDx=0;entryDy=0;entryPerimeter=0;" parent="1" source="Af2n3tpT52LlwI9sb6xv-8" target="Af2n3tpT52LlwI9sb6xv-5" edge="1">
          <mxGeometry relative="1" as="geometry" />
        </mxCell>
        <mxCell id="Af2n3tpT52LlwI9sb6xv-25" style="edgeStyle=entityRelationEdgeStyle;rounded=0;orthogonalLoop=1;jettySize=auto;html=1;exitX=1;exitY=0;exitDx=0;exitDy=0;" parent="1" source="Af2n3tpT52LlwI9sb6xv-28" target="Af2n3tpT52LlwI9sb6xv-4" edge="1">
          <mxGeometry relative="1" as="geometry" />
        </mxCell>
        <mxCell id="Af2n3tpT52LlwI9sb6xv-26" value="Pay Fare amt" style="ellipse;whiteSpace=wrap;" parent="1" vertex="1">
          <mxGeometry x="410" y="250" width="120" height="50" as="geometry" />
        </mxCell>
        <mxCell id="Af2n3tpT52LlwI9sb6xv-27" style="edgeStyle=entityRelationEdgeStyle;rounded=0;orthogonalLoop=1;jettySize=auto;html=1;exitX=0;exitY=1;exitDx=0;exitDy=0;" parent="1" source="Af2n3tpT52LlwI9sb6xv-28" target="Af2n3tpT52LlwI9sb6xv-5" edge="1">
          <mxGeometry relative="1" as="geometry" />
        </mxCell>
        <mxCell id="Af2n3tpT52LlwI9sb6xv-28" value="Cancel Ticket" style="ellipse;whiteSpace=wrap;" parent="1" vertex="1">
          <mxGeometry x="250" y="330" width="120" height="50" as="geometry" />
        </mxCell>
        <mxCell id="Af2n3tpT52LlwI9sb6xv-29" style="edgeStyle=entityRelationEdgeStyle;rounded=0;orthogonalLoop=1;jettySize=auto;html=1;" parent="1" source="Af2n3tpT52LlwI9sb6xv-28" target="Af2n3tpT52LlwI9sb6xv-3" edge="1">
          <mxGeometry relative="1" as="geometry" />
        </mxCell>
        <mxCell id="Af2n3tpT52LlwI9sb6xv-30" value="railway system&lt;div&gt;&lt;br&gt;&lt;/div&gt;" style="text;html=1;align=center;verticalAlign=middle;resizable=0;points=[];autosize=1;strokeColor=none;fillColor=none;" parent="1" vertex="1">
          <mxGeometry x="700" y="203" width="100" height="40" as="geometry" />
        </mxCell>
        <mxCell id="Af2n3tpT52LlwI9sb6xv-31" style="edgeStyle=entityRelationEdgeStyle;rounded=0;orthogonalLoop=1;jettySize=auto;html=1;exitX=0;exitY=1;exitDx=0;exitDy=0;entryX=0.5;entryY=0.5;entryDx=0;entryDy=0;entryPerimeter=0;" parent="1" source="Af2n3tpT52LlwI9sb6xv-20" target="Af2n3tpT52LlwI9sb6xv-5" edge="1">
          <mxGeometry relative="1" as="geometry" />
        </mxCell>
        <mxCell id="Af2n3tpT52LlwI9sb6xv-34" value="" style="endArrow=classic;html=1;rounded=0;entryX=0.095;entryY=0.154;entryDx=0;entryDy=0;entryPerimeter=0;" parent="1" target="Af2n3tpT52LlwI9sb6xv-17" edge="1">
          <mxGeometry width="50" height="50" relative="1" as="geometry">
            <mxPoint x="260" y="230" as="sourcePoint" />
            <mxPoint x="310" y="180" as="targetPoint" />
          </mxGeometry>
        </mxCell>
        <mxCell id="Af2n3tpT52LlwI9sb6xv-35" value="&amp;lt;&amp;lt;include&amp;gt;&amp;gt;" style="edgeLabel;html=1;align=center;verticalAlign=middle;resizable=0;points=[];" parent="Af2n3tpT52LlwI9sb6xv-34" vertex="1" connectable="0">
          <mxGeometry x="-0.0654" y="2" relative="1" as="geometry">
            <mxPoint as="offset" />
          </mxGeometry>
        </mxCell>
        <mxCell id="Af2n3tpT52LlwI9sb6xv-36" value="Employ" style="text;html=1;align=center;verticalAlign=middle;resizable=0;points=[];autosize=1;strokeColor=none;fillColor=none;" parent="1" vertex="1">
          <mxGeometry x="40" y="458" width="60" height="30" as="geometry" />
        </mxCell>
      </root>
    </mxGraphModel>
  </diagram>
</mxfile>
